<svg width="17.087891" height="16.356445" viewBox="0 0 17.0879 16.3564" fill="none" xmlns="http://www.w3.org/2000/svg" xmlns:xlink="http://www.w3.org/1999/xlink">
	<desc>
			Created with Pixso.
	</desc>
	<defs/>
	<path d="M17.0879 8.22754C17.0879 3.68408 13.2627 0 8.54395 0C3.82617 0 0 3.68408 0 8.22754C0 12.334 3.12402 15.7378 7.20898 16.3555L7.20898 10.6064L5.03906 10.6064L5.03906 8.22754L7.20898 8.22754L7.20898 6.41504C7.20898 4.35303 8.48438 3.21338 10.4365 3.21338C11.3711 3.21338 12.3486 3.37451 12.3486 3.37451L12.3486 5.39941L11.2715 5.39941C10.21 5.39941 9.87891 6.0332 9.87891 6.68506L9.87891 8.22754L12.248 8.22754L11.8691 10.6064L9.87891 10.6064L9.87891 16.3564C13.9639 15.7388 17.0879 12.335 17.0879 8.22754Z" fill="#FFFFFF" fill-opacity="1.000000" fill-rule="evenodd"/>
</svg>
