<svg width="17.030273" height="23.580566" viewBox="0 0 17.0303 23.5806" fill="none" xmlns="http://www.w3.org/2000/svg" xmlns:xlink="http://www.w3.org/1999/xlink">
	<desc>
			Created with Pixso.
	</desc>
	<defs/>
	<path d="M0 8.02197C0 3.54883 3.86035 0 8.51465 0C13.1689 0 17.0303 3.54883 17.0303 8.02197C17.0303 10.5464 15.6406 13.6826 14.1074 16.4077C12.5527 19.1709 10.7617 21.6611 9.80176 22.937C9.65234 23.1372 9.45898 23.2988 9.23633 23.4102C9.0127 23.5225 8.76562 23.5806 8.51465 23.5806C8.26465 23.5806 8.01758 23.5225 7.79297 23.4102C7.57031 23.2983 7.37598 23.1357 7.22656 22.9351C6.2666 21.6582 4.47656 19.168 2.92188 16.4058C1.38867 13.6807 0 10.5449 0 8.02197ZM8.51465 1.5C4.5957 1.5 1.5 4.46826 1.5 8.02197C1.5 10.1177 2.69922 12.9502 4.22949 15.6704C5.73828 18.3521 7.48535 20.7842 8.42676 22.0356L8.43066 22.04L8.43066 22.04C8.43848 22.0513 8.4502 22.0615 8.46484 22.0688C8.48047 22.0767 8.49707 22.0806 8.51465 22.0806C8.5332 22.0806 8.5498 22.0767 8.56445 22.0688C8.5791 22.0615 8.59082 22.0513 8.59961 22.04L8.60352 22.0352L8.60352 22.0352C9.54395 20.7842 11.292 18.3535 12.8008 15.6719C14.3311 12.9521 15.5303 10.1191 15.5303 8.02197C15.5303 4.46826 12.4346 1.5 8.51465 1.5Z" fill="#40DDB6" fill-opacity="1.000000" fill-rule="evenodd"/>
	<path d="M8.51562 6.93555C7.21387 6.93555 6.15918 7.99023 6.15918 9.2915C6.15918 10.5928 7.21387 11.6475 8.51562 11.6475C9.81641 11.6475 10.8711 10.5928 10.8711 9.2915C10.8711 7.99023 9.81641 6.93555 8.51562 6.93555ZM4.65918 9.2915C4.65918 7.16211 6.38574 5.43555 8.51562 5.43555C10.6445 5.43555 12.3711 7.16211 12.3711 9.2915C12.3711 11.4209 10.6445 13.1475 8.51562 13.1475C6.38574 13.1475 4.65918 11.4209 4.65918 9.2915Z" fill="#40DDB6" fill-opacity="1.000000" fill-rule="evenodd"/>
</svg>
