<svg width="21.688477" height="17.029785" viewBox="0 0 21.6885 17.0298" fill="none" xmlns="http://www.w3.org/2000/svg" xmlns:xlink="http://www.w3.org/1999/xlink">
	<desc>
			Created with Pixso.
	</desc>
	<defs/>
	<path d="M2.69141 1.5C2.0332 1.5 1.5 2.0332 1.5 2.69141L1.5 14.3389C1.5 14.9966 2.0332 15.5298 2.69141 15.5298L18.998 15.5298C19.6553 15.5298 20.1885 14.9966 20.1885 14.3389L20.1885 2.69141C20.1885 2.0332 19.6553 1.5 18.998 1.5L2.69141 1.5ZM0 2.69141C0 1.20508 1.20508 0 2.69141 0L18.998 0C20.4844 0 21.6885 1.20508 21.6885 2.69141L21.6885 14.3389C21.6885 15.8252 20.4844 17.0298 18.998 17.0298L2.69141 17.0298C1.20508 17.0298 0 15.8252 0 14.3389L0 2.69141Z" fill="#40DDB6" fill-opacity="1.000000" fill-rule="evenodd"/>
	<path d="M3.26367 3.396C3.51758 3.06885 3.98926 3.01025 4.31641 3.26465L10.8438 8.3418L17.3721 3.26465C17.6992 3.01025 18.1699 3.06885 18.4248 3.396C18.6787 3.72314 18.6201 4.19434 18.293 4.44873L11.3047 9.88379C11.0332 10.0947 10.6543 10.0947 10.3838 9.88379L3.39551 4.44873C3.06836 4.19434 3.00879 3.72314 3.26367 3.396Z" fill="#40DDB6" fill-opacity="1.000000" fill-rule="evenodd"/>
</svg>
