<svg width="17.087891" height="16.455078" viewBox="0 0 17.0879 16.4551" fill="none" xmlns="http://www.w3.org/2000/svg" xmlns:xlink="http://www.w3.org/1999/xlink">
	<desc>
			Created with Pixso.
	</desc>
	<defs/>
	<path d="M12.1035 1.37109C13.0469 1.37402 13.9512 1.73584 14.6182 2.37842C15.2852 3.02051 15.6611 3.89111 15.6641 4.79932L15.6641 11.6558C15.6611 12.564 15.2852 13.4346 14.6182 14.0767C13.9512 14.7192 13.0469 15.0811 12.1035 15.084L4.98438 15.084C4.04102 15.0811 3.13672 14.7192 2.46973 14.0767C1.80273 13.4346 1.42676 12.564 1.42383 11.6558L1.42383 4.79932C1.42676 3.89111 1.80273 3.02051 2.46973 2.37842C3.13672 1.73584 4.04102 1.37402 4.98438 1.37109L12.1035 1.37109ZM12.1035 0L4.98438 0C2.24316 0 0 2.15967 0 4.79932L0 11.6558C0 14.2954 2.24316 16.4551 4.98438 16.4551L12.1035 16.4551C14.8447 16.4551 17.0879 14.2954 17.0879 11.6558L17.0879 4.79932C17.0879 2.15967 14.8447 0 12.1035 0Z" fill="#FFFFFF" fill-opacity="1.000000" fill-rule="nonzero"/>
	<path d="M13.1729 4.79932C12.9619 4.79932 12.7559 4.73926 12.5801 4.62646C12.4043 4.51318 12.2676 4.35254 12.1865 4.16455C12.1055 3.97656 12.085 3.77002 12.126 3.57031C12.167 3.37109 12.2686 3.1875 12.418 3.04395C12.5674 2.8999 12.7578 2.80225 12.9648 2.76221C13.1719 2.72266 13.3867 2.74316 13.582 2.8208C13.7773 2.89893 13.9443 3.03076 14.0615 3.19971C14.1787 3.36865 14.2412 3.56787 14.2412 3.771C14.2412 3.90625 14.2139 4.04004 14.1602 4.16504C14.1074 4.29004 14.0283 4.40332 13.9287 4.49902C13.8301 4.59473 13.7119 4.67041 13.582 4.72168C13.4521 4.77344 13.3135 4.7998 13.1729 4.79932ZM8.5459 5.48486C9.1084 5.48486 9.65918 5.646 10.1279 5.94727C10.5957 6.24854 10.9609 6.67676 11.1768 7.17822C11.3926 7.6792 11.4482 8.23047 11.3389 8.7627C11.2285 9.29443 10.958 9.7832 10.5596 10.167C10.1611 10.5503 9.65332 10.8115 9.10059 10.9175C8.54883 11.0234 7.97559 10.9692 7.45508 10.7612C6.93555 10.5537 6.49023 10.2021 6.17773 9.75146C5.86426 9.30029 5.69727 8.77002 5.69727 8.22754C5.69824 7.50049 5.99805 6.80322 6.53223 6.28906C7.06641 5.7749 7.79004 5.48584 8.5459 5.48486ZM8.5459 4.11377C7.7002 4.11377 6.875 4.35498 6.17188 4.80713C5.46973 5.25928 4.92188 5.90137 4.59863 6.65332C4.27539 7.40479 4.19043 8.23193 4.35547 9.03027C4.52051 9.82812 4.92676 10.561 5.52441 11.1362C6.12207 11.7119 6.88379 12.1035 7.71191 12.2622C8.54102 12.4209 9.39941 12.3394 10.1807 12.0283C10.9609 11.7168 11.6279 11.1895 12.0977 10.5132C12.5664 9.83643 12.8174 9.04102 12.8174 8.22754C12.8174 7.13672 12.3672 6.09033 11.5664 5.31885C10.7646 4.54736 9.67871 4.11377 8.5459 4.11377Z" fill="#FFFFFF" fill-opacity="1.000000" fill-rule="nonzero"/>
</svg>
