<svg width="17.359375" height="17.359375" viewBox="0 0 17.3594 17.3594" fill="none" xmlns="http://www.w3.org/2000/svg" xmlns:xlink="http://www.w3.org/1999/xlink">
	<desc>
			Created with Pixso.
	</desc>
	<defs/>
	<path d="M8.68164 0C3.8877 0 0 3.88574 0 8.67773C0 12.23 2.13965 15.2827 5.19727 16.627C5.17383 16.0225 5.19336 15.2944 5.34863 14.6357C5.51465 13.9307 6.46484 9.90576 6.46484 9.90576C6.46484 9.90576 6.18555 9.35156 6.18555 8.53418C6.18555 7.24805 6.92969 6.2876 7.86035 6.2876C8.65039 6.2876 9.03027 6.88037 9.03027 7.58887C9.03027 8.3833 8.52246 9.56885 8.2627 10.6689C8.0459 11.5908 8.72461 12.3384 9.63477 12.3384C11.2783 12.3384 12.3867 10.2271 12.3867 7.72461C12.3867 5.82275 11.1035 4.40088 8.77441 4.40088C6.14258 4.40088 4.5 6.36475 4.5 8.55762C4.5 9.31299 4.72461 9.84766 5.07324 10.2583C5.23242 10.4482 5.25586 10.5254 5.19727 10.7427C5.1543 10.9014 5.06152 11.2847 5.01855 11.4399C4.96094 11.6606 4.78223 11.7383 4.58496 11.6567C3.37207 11.1606 2.80566 9.83594 2.80566 8.34082C2.80566 5.87695 4.8877 2.9209 9.01074 2.9209C12.3242 2.9209 14.5068 5.31885 14.5068 7.89111C14.5068 11.2964 12.6113 13.8379 9.82129 13.8379C8.88281 13.8379 8.00293 13.3301 7.70117 12.7568C7.70117 12.7568 7.19727 14.7559 7.08887 15.1431C6.90625 15.8135 6.5459 16.48 6.2168 17.0029C7.01562 17.2383 7.84473 17.3584 8.67773 17.3594C13.4717 17.3594 17.3594 13.4736 17.3594 8.68164C17.3594 3.88965 13.4756 0 8.68164 0Z" fill="#FFFFFF" fill-opacity="1.000000" fill-rule="nonzero"/>
</svg>
