<svg width="15.782227" height="15.781738" viewBox="0 0 15.7822 15.7817" fill="none" xmlns="http://www.w3.org/2000/svg" xmlns:xlink="http://www.w3.org/1999/xlink">
	<desc>
			Created with Pixso.
	</desc>
	<defs/>
	<path d="M0 7.89111C0 3.53418 3.53418 0 7.89062 0C12.2471 0 15.7822 3.53418 15.7822 7.89111C15.7822 12.2476 12.2471 15.7817 7.89062 15.7817C3.53418 15.7817 0 12.2476 0 7.89111ZM7.89062 1.5C4.3623 1.5 1.5 4.36279 1.5 7.89111C1.5 11.4189 4.3623 14.2817 7.89062 14.2817C11.4189 14.2817 14.2822 11.4189 14.2822 7.89111C14.2822 4.36279 11.4189 1.5 7.89062 1.5Z" fill="#40DDB6" fill-opacity="1.000000" fill-rule="evenodd"/>
	<path d="M7.89062 2.38037C8.30469 2.38037 8.64062 2.71631 8.64062 3.13037L8.64062 7.73584L11.4609 7.73584C11.875 7.73584 12.2109 8.07178 12.2109 8.48584C12.2109 8.90039 11.875 9.23584 11.4609 9.23584L7.89062 9.23584C7.47656 9.23584 7.14062 8.90039 7.14062 8.48584L7.14062 3.13037C7.14062 2.71631 7.47656 2.38037 7.89062 2.38037Z" fill="#40DDB6" fill-opacity="1.000000" fill-rule="evenodd"/>
</svg>
