<svg width="18.308594" height="14.646973" viewBox="0 0 18.3086 14.647" fill="none" xmlns="http://www.w3.org/2000/svg" xmlns:xlink="http://www.w3.org/1999/xlink">
	<desc>
			Created with Pixso.
	</desc>
	<defs/>
	<path d="M18.3086 1.73535C17.6221 2.03369 16.8955 2.23047 16.1514 2.31885C16.9326 1.86133 17.5205 1.13477 17.8047 0.274414C17.0654 0.706543 16.2588 1.00977 15.418 1.1709C15.0645 0.800293 14.6387 0.504883 14.167 0.303711C13.6953 0.102539 13.1875 -0.000976562 12.6748 0C10.5996 0 8.91992 1.65527 8.91992 3.6958C8.91797 3.97998 8.95117 4.2627 9.0166 4.53906C7.52832 4.46924 6.07031 4.08936 4.7373 3.42432C3.4043 2.75879 2.22461 1.82275 1.27344 0.675293C0.94043 1.2373 0.763672 1.87891 0.762695 2.53271C0.762695 3.81445 1.43164 4.94727 2.44141 5.61084C1.84277 5.59668 1.25684 5.43848 0.733398 5.14941L0.733398 5.19482C0.733398 6.98779 2.03027 8.479 3.74609 8.81836C3.42383 8.90479 3.09082 8.94824 2.75684 8.94824C2.51953 8.94873 2.2832 8.92578 2.05078 8.87939C2.52832 10.3481 3.91699 11.416 5.56152 11.4468C4.22559 12.4771 2.58398 13.0337 0.896484 13.0298C0.59668 13.0293 0.297852 13.0112 0 12.9761C1.7168 14.0723 3.71289 14.6523 5.75 14.647C12.667 14.647 16.4463 9.01318 16.4463 4.12695C16.4463 3.9668 16.4424 3.80664 16.4346 3.65039C17.168 3.12842 17.8027 2.47998 18.3086 1.73535Z" fill="#FFFFFF" fill-opacity="1.000000" fill-rule="nonzero"/>
</svg>
