<svg width="20.000000" height="20.000000" viewBox="0 0 20 20" fill="none" xmlns="http://www.w3.org/2000/svg" xmlns:xlink="http://www.w3.org/1999/xlink">
	<desc>
			Created with Pixso.
	</desc>
	<defs>
		<clipPath id="clip6_959">
			<rect id="shopping cart" width="20.000000" height="20.000000" fill="white" fill-opacity="0"/>
		</clipPath>
	</defs>
	<g clip-path="url(#clip6_959)">
		<path id="Icon" d="M2.5 3.33334L3.00537 3.33334C3.85571 3.33334 4.56982 3.97375 4.66211 4.81927L5.33789 11.0141C5.43018 11.8596 6.14429 12.5 6.99463 12.5L14.2051 12.5C14.9668 12.5 15.6318 11.9834 15.8201 11.2452L16.97 6.73593C17.2388 5.68213 16.4424 4.65741 15.355 4.65741L5.5 4.65741M5.83325 16.6667C5.37305 16.6667 5 16.2936 5 15.8333C5 15.3731 5.37305 15 5.83325 15C6.29346 15 6.66675 15.3731 6.66675 15.8333C6.66675 16.2936 6.29346 16.6667 5.83325 16.6667ZM5.52051 15.5208L6.14575 15.5208M5.52051 16.1458L6.14575 16.1458M15 16.6667C14.5398 16.6667 14.1667 16.2936 14.1667 15.8333C14.1667 15.3731 14.5398 15 15 15C15.4602 15 15.8333 15.3731 15.8333 15.8333C15.8333 16.2936 15.4602 16.6667 15 16.6667ZM14.6873 15.5208L15.3123 15.5208M14.6873 16.1458L15.3123 16.1458" stroke="#807D7E" stroke-opacity="1.000000" stroke-width="1.500000"/>
	</g>
</svg>
