<svg width="68.000000" height="68.000000" viewBox="0 0 68 68" fill="none" xmlns="http://www.w3.org/2000/svg" xmlns:xlink="http://www.w3.org/1999/xlink">
	<desc>
			Created with Pixso.
	</desc>
	<defs/>
	<circle id="Ellipse" cx="34.000000" cy="34.000000" r="34.000000" fill="#4C4D52" fill-opacity="1.000000"/>
	<path id="Vector" d="M43.626 38.3262C42.1074 37.561 41.9824 37.4985 40.7881 38.3853C39.9922 38.9771 39.4629 39.5059 38.5303 39.3071C37.5986 39.1084 35.5742 37.9878 33.8008 36.2207C32.0273 34.4531 30.8418 32.3696 30.6426 31.4409C30.4434 30.5122 30.9805 29.9888 31.5664 29.1909C32.3936 28.0659 32.3311 27.8784 31.624 26.3599C31.0732 25.1782 29.5713 22.7974 28.5684 21.8101C27.4941 20.7495 27.4941 20.937 26.8027 21.2241C26.2393 21.4614 25.6982 21.7495 25.1875 22.085C24.1875 22.749 23.6328 23.3013 23.2451 24.1304C22.8564 24.96 22.6826 26.9038 24.6865 30.5449C26.6914 34.186 28.0977 36.0479 31.0078 38.9502C33.9189 41.8525 36.1572 43.4131 39.4287 45.248C43.4766 47.5151 45.0293 47.0732 45.8613 46.6855C46.6924 46.2983 47.2471 45.748 47.9131 44.748C48.249 44.2383 48.5381 43.6987 48.7754 43.1357C49.0635 42.4463 49.251 42.4463 48.1885 41.3735C47.1963 40.3735 44.792 38.9141 43.626 38.3262Z" stroke="#40DDB6" stroke-opacity="1.000000" stroke-width="2.000000"/>
</svg>
