<svg width="17.000000" height="17.000000" viewBox="0 0 17 17" fill="none" xmlns="http://www.w3.org/2000/svg" xmlns:xlink="http://www.w3.org/1999/xlink">
	<desc>
			Created with Pixso.
	</desc>
	<defs/>
	<path id="Vector" d="M14.6543 1.5L2.3457 1.5C1.32617 1.5 0.5 2.33948 0.5 3.375L0.5 14.625C0.5 15.6605 1.32617 16.5 2.3457 16.5L14.6543 16.5C15.6738 16.5 16.5 15.6605 16.5 14.625L16.5 3.375C16.5 2.33948 15.6738 1.5 14.6543 1.5Z" fill="#F8F8F8" fill-opacity="1.000000" fill-rule="nonzero"/>
	<path id="Vector (Stroke)" d="M2.3457 2C1.61035 2 1 2.60828 1 3.375L1 14.625C1 15.3917 1.61035 16 2.3457 16L14.6543 16C15.3896 16 16 15.3917 16 14.625L16 3.375C16 2.60828 15.3896 2 14.6543 2L2.3457 2ZM0 3.375C0 2.07068 1.04297 1 2.3457 1L14.6543 1C15.957 1 17 2.07068 17 3.375L17 14.625C17 15.9293 15.957 17 14.6543 17L2.3457 17C1.04297 17 0 15.9293 0 14.625L0 3.375Z" fill="#000000" fill-opacity="1.000000" fill-rule="evenodd"/>
	<path id="Vector" d="M10.5 8.5C11.0527 8.5 11.5 8.05225 11.5 7.5C11.5 6.94775 11.0527 6.5 10.5 6.5C9.94727 6.5 9.5 6.94775 9.5 7.5C9.5 8.05225 9.94727 8.5 10.5 8.5Z" fill="#37393F" fill-opacity="1.000000" fill-rule="nonzero"/>
	<path id="Vector" d="M13.5 8.5C14.0527 8.5 14.5 8.05225 14.5 7.5C14.5 6.94775 14.0527 6.5 13.5 6.5C12.9473 6.5 12.5 6.94775 12.5 7.5C12.5 8.05225 12.9473 8.5 13.5 8.5Z" fill="#37393F" fill-opacity="1.000000" fill-rule="nonzero"/>
	<path id="Vector" d="M10.5 11.5C11.0527 11.5 11.5 11.0522 11.5 10.5C11.5 9.94775 11.0527 9.5 10.5 9.5C9.94727 9.5 9.5 9.94775 9.5 10.5C9.5 11.0522 9.94727 11.5 10.5 11.5Z" fill="#37393F" fill-opacity="1.000000" fill-rule="nonzero"/>
	<path id="Vector" d="M13.5 11.5C14.0527 11.5 14.5 11.0522 14.5 10.5C14.5 9.94775 14.0527 9.5 13.5 9.5C12.9473 9.5 12.5 9.94775 12.5 10.5C12.5 11.0522 12.9473 11.5 13.5 11.5Z" fill="#37393F" fill-opacity="1.000000" fill-rule="nonzero"/>
	<path id="Vector" d="M3.5 11.5C4.05273 11.5 4.5 11.0522 4.5 10.5C4.5 9.94775 4.05273 9.5 3.5 9.5C2.94727 9.5 2.5 9.94775 2.5 10.5C2.5 11.0522 2.94727 11.5 3.5 11.5Z" fill="#37393F" fill-opacity="1.000000" fill-rule="nonzero"/>
	<path id="Vector" d="M7.5 11.5C8.05273 11.5 8.5 11.0522 8.5 10.5C8.5 9.94775 8.05273 9.5 7.5 9.5C6.94727 9.5 6.5 9.94775 6.5 10.5C6.5 11.0522 6.94727 11.5 7.5 11.5Z" fill="#37393F" fill-opacity="1.000000" fill-rule="nonzero"/>
	<path id="Vector" d="M3.5 14.5C4.05273 14.5 4.5 14.0522 4.5 13.5C4.5 12.9478 4.05273 12.5 3.5 12.5C2.94727 12.5 2.5 12.9478 2.5 13.5C2.5 14.0522 2.94727 14.5 3.5 14.5Z" fill="#37393F" fill-opacity="1.000000" fill-rule="nonzero"/>
	<path id="Vector" d="M7.5 14.5C8.05273 14.5 8.5 14.0522 8.5 13.5C8.5 12.9478 8.05273 12.5 7.5 12.5C6.94727 12.5 6.5 12.9478 6.5 13.5C6.5 14.0522 6.94727 14.5 7.5 14.5Z" fill="#37393F" fill-opacity="1.000000" fill-rule="nonzero"/>
	<path id="Vector" d="M10.5 14.5C11.0527 14.5 11.5 14.0522 11.5 13.5C11.5 12.9478 11.0527 12.5 10.5 12.5C9.94727 12.5 9.5 12.9478 9.5 13.5C9.5 14.0522 9.94727 14.5 10.5 14.5Z" fill="#37393F" fill-opacity="1.000000" fill-rule="nonzero"/>
	<path id="Vector" d="M3.5 0.5L3.5 1.5L3.5 0.5ZM13.5 0.5L13.5 1.5L13.5 0.5Z" fill="#F8F8F8" fill-opacity="1.000000" fill-rule="nonzero"/>
	<path id="Vector (Stroke)" d="M3.5 0C3.77637 0 4 0.223877 4 0.5L4 1.5C4 1.77612 3.77637 2 3.5 2C3.22363 2 3 1.77612 3 1.5L3 0.5C3 0.223877 3.22363 0 3.5 0ZM13.5 0C13.7764 0 14 0.223877 14 0.5L14 1.5C14 1.77612 13.7764 2 13.5 2C13.2236 2 13 1.77612 13 1.5L13 0.5C13 0.223877 13.2236 0 13.5 0Z" fill="#000000" fill-opacity="1.000000" fill-rule="evenodd"/>
	<path id="Vector" d="M16.5 4.5L0.5 4.5L16.5 4.5Z" fill="#F8F8F8" fill-opacity="1.000000" fill-rule="nonzero"/>
	<path id="Vector (Stroke)" d="M0.5 4L16.5 4L16.5 5L0.5 5L0.5 4Z" fill="#000000" fill-opacity="1.000000" fill-rule="evenodd"/>
</svg>
