<svg width="82.393555" height="82.358276" viewBox="0 0 82.3936 82.3583" fill="none" xmlns="http://www.w3.org/2000/svg" xmlns:xlink="http://www.w3.org/1999/xlink">
	<desc>
			Created with Pixso.
	</desc>
	<defs/>
	<circle id="Ellipse" r="39.660709" transform="matrix(1 1 -5.55112e-17 5.55112e-17 41.2236 41.1617)" fill="#37393F" fill-opacity="1.000000"/>
	<path id="Ellipse" d="M31.1426 4.35681Q16.5527 8.35303 8.66309 21.2799Q0.769531 34.1772 3.8877 49.0037Q6.98047 63.8052 19.4131 72.4634Q31.8115 81.1206 46.7988 78.9026Q61.7598 76.7081 71.1523 64.8201Q80.541 52.9669 79.2314 37.873Q77.9434 22.8068 66.6436 12.7145Q55.3848 2.63293 40.2324 3.01404L40.1572 0.0150146Q56.499 -0.395996 68.6416 10.4769Q80.8311 21.3635 82.2207 37.6136Q83.6328 53.8953 73.5059 66.6798Q63.375 79.5034 47.2383 81.8704Q31.0713 84.2627 17.6992 74.9253Q4.28809 65.5858 0.952148 49.6211Q-2.41113 33.6281 6.10254 19.7172Q14.6113 5.77405 30.3496 1.46338L31.1426 4.35681Z" fill="#40DDB6" fill-opacity="1.000000" fill-rule="evenodd"/>
	<path id="95%" d="M26.1181 44.2905Q25.6623 43.8347 25.5254 43.0601L22.9229 43.0601Q22.9807 43.8433 23.2643 44.5339Q23.3873 44.8335 23.5527 45.1157Q23.6452 45.2713 23.7515 45.4168Q24.2789 46.1392 25.1445 46.6147Q26.1846 47.1812 27.6641 47.1812Q29.5439 47.1812 30.6328 46.3218Q30.6414 46.315 30.65 46.3081Q31.7252 45.4492 32.1709 43.8022Q32.625 42.1421 32.625 39.5396Q32.625 35.8823 31.4531 34.061Q31.1903 33.6525 30.8436 33.3356Q29.6449 32.2397 27.4443 32.2397Q25.5602 32.2397 24.3295 33.1365Q24.0707 33.325 23.8408 33.5532Q23.5624 33.8296 23.3427 34.1468Q22.5225 35.3311 22.5225 37.0835Q22.5225 38.5825 23.123 39.6323Q23.5017 40.2942 24.0511 40.7503Q24.3732 41.0177 24.7539 41.2144Q24.8191 41.2477 24.8853 41.279Q25.8652 41.7417 27.0635 41.7417Q27.908 41.7417 28.651 41.4669Q28.7542 41.4287 28.8555 41.3853Q29.639 41.0442 30.0919 40.4507Q30.1188 40.4155 30.1445 40.3794Q30.1445 42.8208 29.583 43.8511Q29.332 44.3116 28.9454 44.5663Q28.4671 44.8813 27.7812 44.8813Q26.8242 44.8813 26.2529 44.4126Q26.1824 44.3547 26.1181 44.2905ZM38.1235 35.0034L44.603 35.0034L44.603 32.5425L35.5649 32.5425L35.5649 41.1021L38.2456 41.1021Q38.4046 40.6381 38.7036 40.297Q38.8547 40.1248 39.0415 39.9839Q39.0858 39.9507 39.1319 39.9202Q39.6694 39.564 40.4429 39.564Q41.5091 39.564 42.1102 40.0927Q42.1752 40.15 42.2348 40.2134Q42.8452 40.8628 42.8452 42.103Q42.8452 43.3122 42.2559 44.0519Q42.2503 44.0589 42.2446 44.0659Q42.112 44.2288 41.951 44.3557Q41.383 44.8032 40.4624 44.8032Q39.5155 44.8032 38.8945 44.3533Q38.8751 44.3392 38.8559 44.3247Q38.5862 44.1177 38.3989 43.8526Q38.1487 43.4984 38.0454 43.0405L35.3257 43.0405Q35.4255 44.0863 35.9083 44.9067Q36.2754 45.5304 36.8638 46.0239Q36.896 46.0509 36.9289 46.0772Q38.28 47.1616 40.5014 47.1616Q42.5487 47.1616 43.8005 46.1637Q44.0295 45.9811 44.2319 45.7651Q44.4737 45.5072 44.671 45.2188Q45.5454 43.9404 45.5454 42.064Q45.5454 41.086 45.257 40.2022Q45.1796 39.9652 45.0815 39.7349Q44.9114 39.3294 44.6641 38.9784Q44.2443 38.3823 43.602 37.9429Q42.5815 37.2397 40.9848 37.2397Q40.3551 37.2397 39.7754 37.4102Q39.5461 37.4777 39.3247 37.5718Q38.5434 37.9038 38.1235 38.4214L38.1235 35.0034ZM47.9599 34.1181Q47.3658 34.919 47.3658 36.1606Q47.3658 37.4553 47.9915 38.2687Q48.1115 38.4247 48.2545 38.563Q48.5056 38.8058 48.7975 38.98Q49.5391 39.4224 50.5445 39.4224Q51.55 39.4224 52.2915 38.98Q52.5835 38.8058 52.8346 38.563Q52.9776 38.4247 53.0976 38.2687Q53.7232 37.4553 53.7232 36.1606Q53.7232 34.919 53.1291 34.1181Q52.9966 33.9394 52.8346 33.7827Q52.5835 33.5399 52.2915 33.3657Q51.55 32.9233 50.5445 32.9233Q49.5391 32.9233 48.7975 33.3657Q48.5056 33.5399 48.2545 33.7827Q48.0924 33.9394 47.9599 34.1181ZM52.3414 47.1616L60.2027 33.1626L57.4635 33.1626L49.6217 47.1616L52.3414 47.1616ZM49.9107 34.777Q50.1562 34.603 50.525 34.603Q50.9208 34.603 51.1789 34.7915Q51.6627 35.1449 51.6627 36.1606Q51.6627 36.9614 51.36 37.3521Q51.2445 37.5034 51.0931 37.5962Q50.8539 37.7427 50.525 37.7427Q50.1638 37.7427 49.9209 37.5732Q49.4215 37.2249 49.4215 36.1606Q49.4215 35.1236 49.9107 34.777ZM28.97 39.0931Q28.4338 39.4614 27.6445 39.4614Q26.5354 39.4614 25.9302 38.9092Q25.8693 38.8536 25.8135 38.7925Q25.6842 38.6508 25.5823 38.4916Q25.2031 37.8991 25.2031 37.064Q25.2031 36.1603 25.6255 35.548Q25.7189 35.4126 25.833 35.2915Q25.9926 35.122 26.1811 34.9954Q26.7363 34.6226 27.542 34.6226Q28.3917 34.6226 28.9624 35.0216Q29.1197 35.1316 29.2559 35.272Q29.3032 35.3208 29.347 35.3726Q29.8857 36.0102 29.8857 37.103Q29.8857 38.027 29.4454 38.6288Q29.3715 38.7298 29.2852 38.8218Q29.1403 38.976 28.97 39.0931ZM56.7753 42.0371Q56.1451 42.8448 56.1451 44.144Q56.1451 45.4461 56.775 46.2618Q56.8892 46.4096 57.024 46.5415Q57.2472 46.7598 57.5054 46.9226Q58.2638 47.4009 59.3238 47.4009Q60.3467 47.4009 61.0861 46.943Q61.3596 46.7736 61.5943 46.5415Q61.7174 46.4199 61.823 46.2846Q62.4635 45.4644 62.4635 44.144Q62.4635 42.8087 61.8125 41.9926Q61.7113 41.8658 61.5943 41.7515Q61.3702 41.5323 61.1106 41.3697Q60.3637 40.9019 59.3238 40.9019Q58.3013 40.9019 57.5518 41.3542Q57.274 41.5218 57.0338 41.7515Q56.8934 41.8856 56.7753 42.0371ZM58.6468 42.7712Q58.9062 42.5815 59.3043 42.5815Q59.683 42.5815 59.9334 42.7608Q60.4225 43.1107 60.4225 44.144Q60.4225 45.1936 59.9273 45.5447Q59.6783 45.7212 59.3043 45.7212Q58.911 45.7212 58.6531 45.5343Q58.1617 45.1783 58.1617 44.144Q58.1617 43.1259 58.6468 42.7712Z" fill="#FFFFFF" fill-opacity="1.000000" fill-rule="evenodd"/>
</svg>
