<svg width="82.422852" height="82.396240" viewBox="0 0 82.4229 82.3962" fill="none" xmlns="http://www.w3.org/2000/svg" xmlns:xlink="http://www.w3.org/1999/xlink">
	<desc>
			Created with Pixso.
	</desc>
	<defs/>
	<circle id="Ellipse" r="39.660709" transform="matrix(1 1 -5.55112e-17 5.55112e-17 41.2334 41.1588)" fill="#37393F" fill-opacity="1.000000"/>
	<path id="Ellipse" d="M19.8428 9.55664Q8.13184 17.4835 4.42285 31.1331Q0.694336 44.7704 6.78027 57.5457Q12.8408 70.3187 25.7822 76.0415Q38.7041 81.7793 52.249 77.6849Q65.7891 73.6156 73.3936 61.682Q81.0107 49.7715 79.001 35.764Q77.0146 21.7664 66.3613 12.4524Q55.7383 3.13562 41.5811 2.99988L41.6094 0Q56.8799 0.146484 68.3359 10.1938Q79.8281 20.2415 81.9707 35.338Q84.1377 50.4486 75.9238 63.2943Q67.7197 76.1678 53.1172 80.5566Q38.5049 84.9736 24.5693 78.7853Q10.6084 72.6116 4.07227 58.8358Q-2.49316 45.0543 1.52734 30.3464Q5.52832 15.6229 18.1611 7.07227L19.8428 9.55664Z" fill="#40DDB6" fill-opacity="1.000000" fill-rule="evenodd"/>
	<path id="85%" d="M23.1734 38.0134Q23.672 38.8871 24.7344 39.439Q23.9871 39.7512 23.4612 40.2825Q23.214 40.5323 23.0156 40.8306Q22.9197 40.974 22.8387 41.1254Q22.3955 41.9531 22.3955 43.0181Q22.3955 44.1099 22.8377 44.9759Q22.9473 45.1904 23.084 45.3911Q23.261 45.6497 23.4712 45.8776Q24.0787 46.5363 24.9639 46.939Q26.1553 47.481 27.6543 47.481Q29.1533 47.481 30.3545 46.939Q31.2702 46.5258 31.8879 45.843Q32.0805 45.6302 32.2441 45.3911Q32.3808 45.1904 32.4904 44.9759Q32.9326 44.1099 32.9326 43.0181Q32.9326 41.9362 32.4752 41.1064Q32.4001 40.9699 32.3125 40.8403Q32.1477 40.5951 31.9491 40.3812Q31.4004 39.7903 30.5938 39.439Q31.1105 39.175 31.5077 38.7882Q31.8011 38.5025 32.0293 38.1499Q32.1275 37.9995 32.2079 37.8401Q32.5713 37.1199 32.5713 36.2163Q32.5713 35.5654 32.3706 34.9839Q32.2385 34.6012 32.0195 34.2485Q32.0058 34.2262 31.9917 34.2041Q31.4447 33.3466 30.3594 32.8325Q29.251 32.3003 27.6543 32.3003Q26.0527 32.3003 24.9395 32.8325Q23.8662 33.3431 23.3149 34.1925Q23.2968 34.2203 23.2793 34.2485Q23.0675 34.5926 22.9378 34.9653Q22.7324 35.555 22.7324 36.2163Q22.7324 37.2407 23.1734 38.0134ZM38.4733 35.0005L44.9528 35.0005L44.9528 32.5396L35.9147 32.5396L35.9147 41.0991L38.5954 41.0991Q38.7543 40.6352 39.0534 40.2941Q39.2045 40.1219 39.3913 39.981Q39.4356 39.9478 39.4817 39.9172Q40.0191 39.561 40.7926 39.561Q41.8589 39.561 42.46 40.0898Q42.525 40.147 42.5846 40.2104Q43.195 40.8599 43.195 42.1001Q43.195 43.3093 42.6056 44.049Q42.6 44.056 42.5944 44.063Q42.4617 44.2258 42.3007 44.3527Q41.7328 44.8003 40.8121 44.8003Q39.8653 44.8003 39.2443 44.3504Q39.2248 44.3363 39.2057 44.3218Q38.936 44.1148 38.7487 43.8496Q38.4985 43.4955 38.3952 43.0376L35.6754 43.0376Q35.7753 44.0834 36.2581 44.9038Q36.6251 45.5275 37.2135 46.021Q37.2458 46.048 37.2786 46.0743Q38.6298 47.1587 40.8512 47.1587Q42.8985 47.1587 44.1502 46.1608Q44.3793 45.9782 44.5817 45.7622Q44.8235 45.5042 45.0208 45.2158Q45.8952 43.9375 45.8952 42.061Q45.8952 41.0831 45.6068 40.1993Q45.5294 39.9622 45.4313 39.7319Q45.2612 39.3265 45.0139 38.9754Q44.594 38.3794 43.9518 37.9399Q42.9313 37.2368 41.3346 37.2368Q40.7048 37.2368 40.1252 37.4073Q39.8959 37.4747 39.6745 37.5688Q38.8932 37.9009 38.4733 38.4185L38.4733 35.0005ZM48.3097 34.1151Q47.7156 34.9161 47.7156 36.1577Q47.7156 37.4524 48.3413 38.2658Q48.4613 38.4218 48.6043 38.5601Q48.8553 38.8028 49.1473 38.977Q49.8888 39.4194 50.8943 39.4194Q51.8998 39.4194 52.6413 38.977Q52.9333 38.8028 53.1843 38.5601Q53.3273 38.4218 53.4473 38.2658Q54.073 37.4524 54.073 36.1577Q54.073 34.9161 53.4789 34.1151Q53.3464 33.9365 53.1843 33.7798Q52.9333 33.537 52.6413 33.3628Q51.8997 32.9204 50.8943 32.9204Q49.8888 32.9204 49.1473 33.3628Q48.8553 33.537 48.6043 33.7798Q48.4422 33.9365 48.3097 34.1151ZM52.6912 47.1587L60.5525 33.1597L57.8132 33.1597L49.9714 47.1587L52.6912 47.1587ZM29.4814 35.3461Q29.8516 35.8437 29.8516 36.6167Q29.8516 37.1812 29.6094 37.6085Q29.464 37.8649 29.2314 38.0718Q29.096 38.1913 28.9444 38.2846Q28.4022 38.6187 27.6543 38.6187Q26.8649 38.6187 26.3123 38.2569Q26.1915 38.1779 26.082 38.0815Q25.8629 37.887 25.7225 37.6465Q25.4717 37.217 25.4717 36.6411Q25.4717 35.8174 25.8718 35.3078Q25.9579 35.1981 26.0625 35.103Q26.1283 35.0427 26.1991 34.9891Q26.7647 34.561 27.6543 34.561Q28.5921 34.561 29.1629 35.0187Q29.2132 35.0591 29.2607 35.103Q29.3839 35.215 29.4814 35.3461ZM50.2604 34.7741Q50.506 34.6001 50.8748 34.6001Q51.2706 34.6001 51.5287 34.7886Q52.0125 35.142 52.0125 36.1577Q52.0125 36.9585 51.7097 37.3491Q51.5943 37.5005 51.4429 37.5932Q51.2037 37.7397 50.8748 37.7397Q50.5136 37.7397 50.2706 37.5703Q49.7712 37.2219 49.7712 36.1577Q49.7712 35.1206 50.2604 34.7741ZM25.8857 41.1765Q26.5767 40.6597 27.6543 40.6597Q28.7034 40.6597 29.3788 41.162Q29.4359 41.2045 29.4902 41.2505Q29.6983 41.4238 29.8447 41.6391Q30.1934 42.1513 30.1934 42.9009Q30.1934 43.4541 29.974 43.8992Q29.8061 44.2398 29.5098 44.5171Q29.4363 44.5863 29.357 44.648Q28.7037 45.1567 27.6543 45.1567Q26.5783 45.1567 25.9112 44.6345Q25.8457 44.5832 25.7842 44.5269Q25.5087 44.2748 25.3434 43.9641Q25.0957 43.4984 25.0957 42.9009Q25.0957 42.1149 25.468 41.5959Q25.6091 41.3991 25.8037 41.2407Q25.844 41.2077 25.8857 41.1765ZM57.125 42.0342Q56.4949 42.8418 56.4949 44.1411Q56.4949 45.4432 57.1248 46.2589Q57.2389 46.4067 57.3738 46.5386Q57.597 46.7568 57.8552 46.9197Q58.6136 47.3979 59.6736 47.3979Q60.6965 47.3979 61.4358 46.9401Q61.7094 46.7707 61.9441 46.5386Q62.0671 46.4169 62.1727 46.2817Q62.8132 45.4615 62.8132 44.1411Q62.8132 42.8057 62.1622 41.9897Q62.061 41.8628 61.9441 41.7485Q61.7199 41.5294 61.4603 41.3668Q60.7135 40.8989 59.6736 40.8989Q58.6511 40.8989 57.9015 41.3512Q57.6238 41.5188 57.3836 41.7485Q57.2432 41.8827 57.125 42.0342ZM58.9966 42.7683Q59.256 42.5786 59.6541 42.5786Q60.0328 42.5786 60.2832 42.7578Q60.7722 43.1078 60.7722 44.1411Q60.7722 45.1907 60.277 45.5418Q60.0281 45.7183 59.6541 45.7183Q59.2608 45.7183 59.0029 45.5314Q58.5115 45.1754 58.5115 44.1411Q58.5115 43.123 58.9966 42.7683Z" fill="#FFFFFF" fill-opacity="1.000000" fill-rule="evenodd"/>
</svg>
