<svg width="121.760742" height="25.042114" viewBox="0 0 121.761 25.0421" fill="none" xmlns="http://www.w3.org/2000/svg" xmlns:xlink="http://www.w3.org/1999/xlink">
	<desc>
			Created with Pixso.
	</desc>
	<defs/>
	<path d="M9.19434 2.9491C9.46191 2.12569 10.627 2.12569 10.8945 2.9491L12.6533 8.36128C12.7725 8.72952 13.1162 8.97884 13.5029 8.97884L19.1943 8.97884C20.0596 8.97884 20.4199 10.0867 19.7188 10.5956L15.1152 13.9405C14.8018 14.1681 14.6709 14.5715 14.791 14.9398L16.5488 20.3519C16.8164 21.1753 15.874 21.86 15.1738 21.3512L10.5703 18.0062C10.2568 17.7787 9.83301 17.7787 9.51953 18.0062L4.91504 21.3512C4.21484 21.8601 3.27246 21.1753 3.54004 20.3519L5.29883 14.9398C5.41797 14.5715 5.28711 14.1681 4.97363 13.9405L0.370117 10.5956C-0.330078 10.0867 0.0292969 8.97884 0.895508 8.97884L6.58594 8.97884C6.97363 8.97884 7.31641 8.72952 7.43652 8.36128L9.19434 2.9491Z" fill="#FFA722" fill-opacity="1.000000" fill-rule="nonzero"/>
	<path d="M58.793 3.05474C59.0547 2.21938 60.2373 2.21938 60.499 3.05474L62.1592 8.35194C62.2754 8.72473 62.6211 8.97846 63.0117 8.97846L68.4492 8.97846C69.3076 8.97846 69.6729 10.0697 68.9873 10.586L64.5332 13.9424C64.2305 14.1699 64.1045 14.5627 64.2178 14.9234L65.9062 20.3118C66.166 21.141 65.209 21.8157 64.5156 21.2928L60.1836 18.0294C59.8652 17.7895 59.4268 17.7895 59.1084 18.0294L54.7773 21.2928C54.083 21.8157 53.127 21.141 53.3867 20.3118L55.0752 14.9234C55.1875 14.5627 55.0615 14.1699 54.7598 13.9424L50.3047 10.586C49.6201 10.0697 49.9844 8.97846 50.8428 8.97846L56.2812 8.97846C56.6719 8.97846 57.0166 8.72473 57.1338 8.35194L58.793 3.05474Z" fill="#FFA722" fill-opacity="1.000000" fill-rule="nonzero"/>
	<path d="M108.398 2.9491C108.666 2.12569 109.831 2.12569 110.099 2.9491L110.3 3.56917L111.857 8.36128C111.977 8.72952 112.32 8.97884 112.707 8.97884L118.398 8.97884C119.264 8.97884 119.624 10.0867 118.923 10.5956L118.396 10.9788L114.319 13.9405C114.006 14.1681 113.875 14.5715 113.995 14.9398L115.552 19.7319L115.753 20.3519C116.021 21.1753 115.078 21.86 114.378 21.3512L113.851 20.9679L109.774 18.0062C109.461 17.7787 109.037 17.7787 108.724 18.0062L104.119 21.3512C103.419 21.8601 102.477 21.1753 102.744 20.3519L102.945 19.7319L104.503 14.9398C104.622 14.5715 104.491 14.1681 104.178 13.9405L100.102 10.9788L99.5742 10.5956C98.874 10.0867 99.2334 8.97884 100.1 8.97884L105.79 8.97884C106.178 8.97884 106.521 8.72952 106.641 8.36128L108.197 3.56917L108.398 2.9491ZM109.249 6.80524L108.542 8.97932Q108.469 9.20486 108.361 9.41282Q108.259 9.61192 108.125 9.79489Q107.993 9.97529 107.837 10.1315Q107.677 10.2915 107.491 10.4262Q107.306 10.5609 107.104 10.6636Q106.907 10.7639 106.695 10.8339Q106.479 10.9048 106.259 10.941Q106.027 10.9788 105.79 10.9788L103.504 10.9788L105.354 12.3225Q105.546 12.4619 105.71 12.6283Q105.868 12.7876 106 12.9715Q106.131 13.1529 106.231 13.3498Q106.334 13.5515 106.405 13.7694Q106.476 13.9873 106.511 14.2108Q106.546 14.429 106.547 14.6526Q106.548 14.8794 106.514 15.101Q106.479 15.3323 106.405 15.5578L105.698 17.7319L107.548 16.3882Q107.739 16.2488 107.948 16.1437Q108.149 16.043 108.365 15.9738Q108.578 15.9055 108.796 15.8709Q109.02 15.8356 109.249 15.8356Q109.478 15.8356 109.701 15.8709Q109.92 15.9055 110.133 15.9738Q110.349 16.043 110.549 16.1437Q110.758 16.2488 110.949 16.3882L112.799 17.7319L112.093 15.5578Q112.02 15.3322 111.984 15.1008Q111.95 14.8794 111.951 14.6526Q111.952 14.4291 111.986 14.2109Q112.021 13.9873 112.093 13.7694Q112.163 13.5514 112.267 13.3497Q112.366 13.1529 112.497 12.9715Q112.63 12.7876 112.787 12.6283Q112.952 12.4619 113.144 12.3225L114.993 10.9788L112.707 10.9788Q112.47 10.9788 112.239 10.941Q112.018 10.9048 111.803 10.8339Q111.59 10.7639 111.394 10.6636Q111.191 10.5608 111.007 10.4262Q110.821 10.2915 110.661 10.1316Q110.505 9.97531 110.373 9.79489Q110.238 9.61188 110.136 9.41273Q110.028 9.20482 109.955 8.97932L109.249 6.80524Z" fill="#FFA722" fill-opacity="1.000000" fill-rule="evenodd"/>
	<path d="M34.2188 2.9491C34.4863 2.12569 35.6514 2.12569 35.9189 2.9491L37.6777 8.36128C37.7969 8.72952 38.1406 8.97884 38.5273 8.97884L44.2188 8.97884C45.084 8.97884 45.4443 10.0867 44.7432 10.5956L40.1396 13.9405C39.8262 14.1681 39.6953 14.5715 39.8154 14.9398L41.5732 20.3519C41.8408 21.1753 40.8984 21.86 40.1982 21.3512L35.5947 18.0062C35.2812 17.7787 34.8574 17.7787 34.5439 18.0062L29.9395 21.3512C29.2393 21.8601 28.2969 21.1753 28.5645 20.3519L30.3232 14.9398C30.4424 14.5715 30.3115 14.1681 29.998 13.9405L25.3945 10.5956C24.6943 10.0867 25.0537 8.97884 25.9199 8.97884L31.6104 8.97884C31.998 8.97884 32.3408 8.72952 32.4609 8.36128L34.2188 2.9491Z" fill="#FFA722" fill-opacity="1.000000" fill-rule="nonzero"/>
	<path d="M83.374 2.9491C83.6416 2.12569 84.8066 2.12569 85.0742 2.9491L86.833 8.36128C86.9521 8.72952 87.2959 8.97884 87.6826 8.97884L93.374 8.97884C94.2393 8.97884 94.5996 10.0867 93.8984 10.5956L89.2949 13.9405C88.9814 14.1681 88.8506 14.5715 88.9707 14.9398L90.7285 20.3519C90.9961 21.1753 90.0537 21.86 89.3535 21.3512L84.75 18.0062C84.4365 17.7787 84.0127 17.7787 83.6992 18.0062L79.0947 21.3512C78.3945 21.8601 77.4521 21.1753 77.7197 20.3519L79.4785 14.9398C79.5977 14.5715 79.4668 14.1681 79.1533 13.9405L74.5498 10.5956C73.8496 10.0867 74.209 8.97884 75.0752 8.97884L80.7656 8.97884C81.1533 8.97884 81.4961 8.72952 81.6162 8.36128L83.374 2.9491Z" fill="#FFA722" fill-opacity="1.000000" fill-rule="nonzero"/>
	<mask id="mask1_3690" mask-type="alpha" maskUnits="userSpaceOnUse" x="96.718750" y="0.000000" width="25.041992" height="25.042114">
		<path d="M108.289 2.92705L106.653 7.96085C106.52 8.37288 106.136 8.65184 105.702 8.65184L100.409 8.65184C99.4404 8.65184 99.0381 9.89146 99.8213 10.4609L104.104 13.5719C104.454 13.8266 104.601 14.2779 104.467 14.6899L102.831 19.7238C102.532 20.6451 103.586 21.4112 104.37 20.8418L108.652 17.7307C109.003 17.4761 109.478 17.4761 109.827 17.7307L114.109 20.8418C114.894 21.4112 115.948 20.6451 115.648 19.7238L114.013 14.6899C113.879 14.2779 114.025 13.8266 114.376 13.5719L118.658 10.4609C119.441 9.89145 119.039 8.65184 118.07 8.65184L112.777 8.65184C112.345 8.65184 111.96 8.37288 111.826 7.96085L110.19 2.92705C109.892 2.00574 108.588 2.00574 108.289 2.92705Z" fill="#FFA722" fill-opacity="1.000000" fill-rule="evenodd"/>
	</mask>
	<g mask="url(#mask1_3690)">
		<rect x="99.173828" y="0.491211" rx="1.000000" width="9.820436" height="22.587008" fill="#FFA722" fill-opacity="1.000000"/>
	</g>
</svg>
