<svg width="14.000000" height="14.000000" viewBox="0 0 14 14" fill="none" xmlns="http://www.w3.org/2000/svg" xmlns:xlink="http://www.w3.org/1999/xlink">
	<desc>
			Created with Pixso.
	</desc>
	<defs/>
	<path d="M9.5791 1.01807C8.92383 0.361572 8.00977 0 7 0C5.98535 0 5.06738 0.359375 4.41504 1.01196C3.75684 1.67163 3.43555 2.56812 3.51074 3.53613C3.66016 5.44629 5.22559 7 7 7C8.77441 7 10.3369 5.44653 10.4893 3.53687C10.5654 2.57739 10.2422 1.68286 9.5791 1.01807ZM12.9229 14L1.07715 14C0.921875 14.0017 0.768555 13.9714 0.62793 13.9114C0.486328 13.8513 0.362305 13.7627 0.262695 13.6521C0.0439453 13.4092 -0.0439453 13.0776 0.0214844 12.7424C0.304688 11.2793 1.19141 10.0503 2.58496 9.1875C3.82227 8.42163 5.39062 8 7 8C8.60938 8 10.1777 8.42188 11.415 9.1875C12.8086 10.05 13.6953 11.2791 13.9785 12.7422C14.0439 13.0774 13.9561 13.4089 13.7373 13.6519C13.6377 13.7625 13.5137 13.8511 13.3721 13.9111C13.2314 13.9714 13.0781 14.0017 12.9229 14Z" fill="#207F68" fill-opacity="1.000000" fill-rule="nonzero"/>
</svg>
