<svg width="13.000000" height="13.000000" viewBox="0 0 13 13" fill="none" xmlns="http://www.w3.org/2000/svg" xmlns:xlink="http://www.w3.org/1999/xlink">
	<desc>
			Created with Pixso.
	</desc>
	<defs/>
	<path d="M12.623 0.383057C12.5029 0.26123 12.3594 0.164795 12.2012 0.0991211C12.043 0.0332031 11.874 -0.000488281 11.7021 0L8.13574 0C7.90137 0.000488281 7.67676 0.0930176 7.51074 0.258057L0.379883 7.38745C0.136719 7.63135 0 7.96167 0 8.30615C0 8.65063 0.136719 8.98096 0.379883 9.22485L3.77539 12.6199C4.01855 12.8633 4.34961 13 4.69434 13C5.03906 13 5.36914 12.8633 5.61328 12.6199L12.7412 5.49316C12.9062 5.32739 12.999 5.10303 13 4.86914L13 1.30005C13.001 1.12964 12.9678 0.960938 12.9033 0.803711C12.8389 0.64624 12.7432 0.503174 12.623 0.383057ZM10.2139 3.71411C10.0303 3.71411 9.85156 3.65967 9.69824 3.55762C9.5459 3.45557 9.42676 3.31055 9.35645 3.14087C9.28613 2.97144 9.26758 2.78467 9.30371 2.60449C9.33984 2.42432 9.42773 2.25903 9.55762 2.12915C9.6875 1.99927 9.85254 1.91089 10.0332 1.875C10.2129 1.83911 10.4004 1.85742 10.5693 1.92773C10.7393 1.99805 10.8848 2.11719 10.9863 2.26978C11.0889 2.42236 11.1426 2.60205 11.1426 2.78564C11.1426 3.03198 11.0449 3.26807 10.8711 3.44214C10.6963 3.61646 10.4609 3.71411 10.2139 3.71411Z" fill="#207F68" fill-opacity="1.000000" fill-rule="nonzero"/>
</svg>
