<svg width="68.000000" height="68.000000" viewBox="0 0 68 68" fill="none" xmlns="http://www.w3.org/2000/svg" xmlns:xlink="http://www.w3.org/1999/xlink">
	<desc>
			Created with Pixso.
	</desc>
	<defs/>
	<circle id="Ellipse" cx="34.000000" cy="34.000000" r="34.000000" fill="#4C4D52" fill-opacity="1.000000"/>
	<path id="Vector" d="M24 29.8804C24 36.1548 30.667 46.0977 33.1143 49.5322C33.2158 49.6768 33.3496 49.7949 33.5029 49.8765C33.6572 49.9575 33.8271 50 34 50C34.1729 50 34.3428 49.9575 34.4971 49.8765C34.6504 49.7949 34.7842 49.6768 34.8857 49.5322C37.333 46.0991 44 36.1597 44 29.8804C44 24.4272 39.5205 20 34 20C28.4795 20 24 24.4272 24 29.8804Z" stroke="#40DDB6" stroke-opacity="1.000000" stroke-width="2.000000" stroke-linejoin="round"/>
	<path id="Vector" d="M34 35C31.791 35 30 33.209 30 31C30 28.791 31.791 27 34 27C36.209 27 38 28.791 38 31C38 33.209 36.209 35 34 35Z" stroke="#40DDB6" stroke-opacity="1.000000" stroke-width="2.000000" stroke-linejoin="round"/>
</svg>
