<svg width="200.000000" height="38.000000" viewBox="0 0 200 38" fill="none" xmlns="http://www.w3.org/2000/svg" xmlns:xlink="http://www.w3.org/1999/xlink">
	<desc>
			Created with Pixso.
	</desc>
	<defs/>
	<path d="M162.873 28L162.873 9.50024L158.6 9.50024L158.6 28L162.873 28ZM170.248 28L170.248 9.50024L165.975 9.50024L165.975 28L170.248 28Z" fill="#40DDB6" fill-opacity="1.000000" fill-rule="evenodd"/>
	<path d="M91.3727 12.2169Q91.9916 12.6008 92.8487 12.6008Q93.6457 12.6008 94.2403 12.254Q94.4654 12.1227 94.6615 11.9417Q95.0179 11.6096 95.1964 11.2001Q95.3756 10.789 95.3756 10.2998Q95.3756 9.75342 95.1628 9.30887Q94.9858 8.93901 94.6615 8.63965Q94.4583 8.45035 94.224 8.31491Q93.6348 7.97437 92.8487 7.97437Q92.003 7.97437 91.3892 8.35167Q91.1879 8.47538 91.0116 8.63965Q90.6873 8.93901 90.5102 9.30887Q90.2975 9.75342 90.2975 10.2998Q90.2975 10.789 90.4767 11.2001Q90.6552 11.6096 91.0116 11.9417Q91.1807 12.0977 91.3727 12.2169ZM85.2015 14.6066Q84.0253 13.9009 82.4257 13.9009Q81.028 13.9009 79.8989 14.4502Q78.912 14.9329 78.288 15.7078Q78.2019 15.8148 78.1228 15.9272L78.1228 9.50024L73.8503 9.50024L73.8503 28L78.1228 28L78.1228 20.4255Q78.1228 19.0965 78.7794 18.3304Q78.8134 18.2908 78.8491 18.2527Q79.0516 18.0366 79.2929 17.8807Q79.9174 17.4775 80.8022 17.4775Q81.6738 17.4775 82.2933 17.8727Q82.5415 18.031 82.7492 18.2527Q82.7849 18.2908 82.8188 18.3304Q83.4755 19.0965 83.4755 20.4255L83.4755 28L87.7236 28L87.7236 19.8518Q87.7236 17.2491 86.4476 15.6918Q86.3622 15.5874 86.271 15.4878Q85.789 14.9591 85.2015 14.6066ZM123.875 14.8449Q122.899 16.7752 122.899 19.1987Q122.899 21.6376 123.887 23.5716Q123.952 23.6995 124.022 23.8252Q124.608 24.8772 125.431 25.6891Q126.194 26.4409 127.159 26.9868Q127.424 27.1358 127.697 27.2652Q129.508 28.1221 131.725 28.1221Q134.251 28.1221 136.187 27.0529Q136.646 26.7996 137.071 26.4863Q137.866 25.9032 138.472 25.1656Q139.567 23.8344 140.05 22.0002L135.35 22.0002Q134.965 22.8066 134.343 23.3335Q134.117 23.5245 133.861 23.6787Q133.689 23.7814 133.509 23.8657Q132.683 24.2524 131.676 24.2524Q130.477 24.2524 129.555 23.748Q128.955 23.4201 128.471 22.8792Q128.357 22.7501 128.254 22.613Q127.251 21.2845 127.251 19.1987Q127.251 17.1092 128.257 15.7847Q128.359 15.6506 128.471 15.5244Q128.955 14.9834 129.555 14.6556Q130.477 14.1511 131.676 14.1511Q132.683 14.1511 133.509 14.5379Q133.689 14.6222 133.861 14.7249Q134.113 14.875 134.336 15.0611Q134.963 15.5861 135.35 16.3972L140.05 16.3972Q139.573 14.5915 138.501 13.2679Q137.885 12.5067 137.071 11.905Q136.615 11.5655 136.121 11.2957Q134.208 10.251 131.725 10.251Q129.528 10.251 127.729 11.0975Q127.439 11.2339 127.159 11.3923Q126.225 11.9208 125.48 12.6449Q124.626 13.4765 124.022 14.5662Q123.946 14.7042 123.875 14.8449ZM67.1243 28L71.7019 10.4524L67.0999 10.4524L64.5486 23.2271L61.5518 10.4524L56.8521 10.4524L53.7271 23.2271L51.2002 10.4524L46.6226 10.4524L51.072 28L56.2478 28L59.147 16.4521L61.9485 28L67.1243 28ZM105.851 28L105.851 24.3745L104.325 24.3745Q103.623 24.3745 103.324 24.0999Q103.025 23.8252 103.025 23.2026L103.025 17.5996L105.827 17.5996L105.827 14.0474L103.025 14.0474L103.025 10.6477L98.7528 10.6477L98.7528 14.0474L97.0499 14.0474L97.0499 17.5996L98.7528 17.5996L98.7528 23.1477Q98.7528 25.6869 100.016 26.8321Q100.034 26.8486 100.053 26.8647Q101.353 28 103.672 28L105.851 28ZM121.299 22.0491Q121.372 21.4021 121.372 20.7979Q121.372 18.6982 120.487 17.1235Q120.017 16.2864 119.351 15.6545Q118.765 15.0978 118.028 14.7004Q118.013 14.6926 117.998 14.6848Q116.434 13.8521 114.426 13.8521Q112.352 13.8521 110.754 14.724L110.752 14.7249Q110.05 15.1081 109.484 15.6373Q108.762 16.3132 108.262 17.2273Q107.377 18.8508 107.377 21.0237Q107.377 23.2026 108.274 24.8262Q108.779 25.7334 109.501 26.4082Q110.071 26.9409 110.777 27.3286Q110.842 27.3643 110.908 27.3986Q112.46 28.2014 114.426 28.2014Q116.123 28.2014 117.497 27.5789Q118.598 27.0767 119.4 26.2748Q119.602 26.0727 119.785 25.8516Q120.268 25.2729 120.592 24.6164Q120.884 24.0264 121.049 23.3735L116.502 23.3735Q116.226 23.9643 115.765 24.2963Q115.173 24.7224 114.274 24.7224Q113.606 24.7224 113.068 24.4582Q112.74 24.2974 112.461 24.0388Q112.412 23.9927 112.365 23.9439Q111.716 23.2622 111.625 22.0491L121.299 22.0491ZM145.63 27.4766Q147.154 28.2014 149.023 28.2014Q150.82 28.2014 152.317 27.5315Q152.528 27.4367 152.734 27.3286Q153.532 26.9076 154.168 26.3128Q154.859 25.6661 155.358 24.814Q155.438 24.678 155.511 24.5386Q156.323 22.9943 156.323 21.0237Q156.323 19.0001 155.478 17.4313Q155.426 17.3345 155.371 17.2395Q154.857 16.3487 154.136 15.6843Q153.527 15.1241 152.771 14.7249Q152.577 14.6223 152.378 14.5318Q150.882 13.8521 149.078 13.8521Q147.263 13.8521 145.758 14.5359Q145.563 14.6246 145.373 14.7249Q144.645 15.1107 144.052 15.6467Q143.304 16.3234 142.773 17.2395Q142.727 17.3191 142.683 17.4Q141.827 18.9798 141.827 21.0237Q141.827 23.2026 142.761 24.8262Q143.263 25.6936 143.964 26.3485Q144.575 26.9193 145.336 27.3286Q145.482 27.4061 145.63 27.4766ZM173.314 17.2273Q172.502 18.8508 172.502 20.9993Q172.502 23.1477 173.314 24.7896Q173.985 26.1421 175.057 26.9856Q175.281 27.1622 175.523 27.3164Q176.124 27.6952 176.779 27.9119Q177.653 28.2014 178.624 28.2014Q180.101 28.2014 181.212 27.6033Q182.141 27.0975 182.734 26.3308Q182.849 26.1816 182.951 26.0225L182.951 28L187.224 28L187.224 14.0474L182.951 14.0474L182.951 16.0249Q182.865 15.8846 182.769 15.7522Q182.193 14.9624 181.236 14.4502Q180.125 13.8521 178.648 13.8521Q177.558 13.8521 176.595 14.2022Q176.038 14.4048 175.523 14.7249Q175.281 14.8758 175.057 15.0493Q173.985 15.8794 173.314 17.2273ZM195.922 14.9346Q195.157 15.5183 194.598 16.3728L194.598 14.0474L190.325 14.0474L190.325 28L194.598 28L194.598 21.5242Q194.598 19.803 195.397 19.1133Q196.203 18.4236 197.802 18.4236L198.974 18.4236L198.974 13.9009Q198.057 13.9009 197.249 14.1974Q196.847 14.345 196.472 14.5662Q196.185 14.7345 195.922 14.9346ZM94.9728 28L94.9728 14.0474L90.7003 14.0474L90.7003 28L94.9728 28ZM116.688 18.4431Q117.002 18.9646 117.002 19.6748L111.649 19.6748Q111.802 18.6846 112.369 18.0852Q112.458 17.9901 112.559 17.9048Q112.765 17.7295 112.997 17.6031Q113.599 17.2761 114.378 17.2761Q115.209 17.2761 115.836 17.6336Q116.056 17.7593 116.251 17.9292Q116.517 18.1579 116.688 18.4431ZM150.113 24.2973Q149.61 24.5027 149.023 24.5027Q148.402 24.5027 147.886 24.2708Q147.386 24.0466 146.984 23.6055Q146.173 22.7021 146.173 21.0237Q146.173 19.3269 146.997 18.4419Q147.376 18.0341 147.844 17.813Q148.399 17.5508 149.078 17.5508Q149.672 17.5508 150.176 17.765Q150.706 17.9907 151.135 18.4541Q151.144 18.4637 151.153 18.4733Q151.977 19.3691 151.977 21.0237Q151.977 22.6389 151.174 23.5363Q151.143 23.5714 151.11 23.6055Q150.661 24.0735 150.113 24.2973ZM182.285 18.765Q182.951 19.6411 182.951 21.0237Q182.951 22.4029 182.288 23.2826Q182.183 23.4229 182.06 23.5505Q181.615 24.0138 181.072 24.2442Q180.534 24.4722 179.899 24.4722Q179.286 24.4722 178.761 24.2562Q178.195 24.0231 177.733 23.5383Q177.614 23.412 177.511 23.2738Q176.848 22.3835 176.848 20.9993Q176.848 19.5983 177.527 18.7267Q177.623 18.6034 177.733 18.4907Q178.18 18.0306 178.725 17.8017Q179.265 17.5752 179.899 17.5752Q180.527 17.5752 181.06 17.7996Q181.61 18.0314 182.06 18.5029Q182.181 18.6277 182.285 18.765Z" fill="#FFFFFF" fill-opacity="1.000000" fill-rule="evenodd"/>
	<path d="M0 6L5.87891 6L19.4082 29.4053L16.5508 34.6299L0 6ZM8.49609 6L14.376 6L28.2002 29.915L25.2607 35L8.49609 6Z" fill="#40DDB6" fill-opacity="1.000000" fill-rule="evenodd"/>
	<path d="M32.5303 22.6948L36.3047 16.1631L30.4277 16.1631L29.5908 17.6099L25.4326 10.4194L39.6201 10.4194L42.1709 6L17 6L29.5947 27.7861L32.5322 22.6982L32.5303 22.6948Z" fill="#6B77E5" fill-opacity="1.000000" fill-rule="nonzero"/>
</svg>
